:SAMPLES-PER-SECOND 30
:FULLY-SPECIFIED
:DEGREES
841
root  -82.756 40.4447 -18.639 8.65491 40.9567 5.01294
RightUpLeg  -14.416 -13.5941 -10.3542
RightLeg  13.0846 3.65349 1.59891
RightFoot  -3.00878 -0.296216 3.78158
RightToes  -8.14909e-010 0 -3.6325e-017
Spine  15.2569 -2.47967 12.5181
Spine1  7.39856 2.23317 -13.7595
HEad  -53.7048 -41.317 26.7193
LeftShoulder1  0.573578 1.68108 -25.3407
LeftArm  -3.27353 15.2794 -41.1626
LeftForeArm  28.9229 -31.5176 -5.28507
LeftHand  0.0893303 7.93222 5.65075
RightShoulder  -0.405074 -5.09007 18.4855
RightArm  -4.12004 31.6906 21.5956
RightForeArm  50.1727 38.7037 5.9363
RightHand  0.0906958 -3.37423 6.01953
LeftUpLeg  -16.8017 12.3951 -1.03469
LeftLeg  22.9811 0.83705 0.720279
LeftFoot  -6.29513 0.18076 -3.2467
LeftToes  1.648e-009 -9.21574e-011 2.55256e-011
842
root  -82.632 40.4703 -18.8147 8.39972 42.4771 4.67712
RightUpLeg  -13.349 -13.6283 -10.6001
RightLeg  11.7945 2.24028 1.45347
RightFoot  -2.46334 -0.345936 4.23795
RightToes  -8.14909e-010 0 -3.6325e-017
Spine  14.9302 -1.83726 10.4034
Spine1  7.39017 1.81158 -10.5125
HEad  -52.805 -44.5624 25.5639
LeftShoulder1  0.473997 2.07093 -26.9397
LeftArm  -2.44518 14.7398 -40.7674
LeftForeArm  29.1007 -31.318 -5.22756
LeftHand  0.0298828 6.79107 5.09975
RightShoulder  -0.393625 -5.10142 17.4587
RightArm  -7.60577 29.746 23.9713
RightForeArm  52.111 40.1092 6.21681
RightHand  0.240088 0.25115 4.95503
LeftUpLeg  -16.4412 14.8616 -0.309439
LeftLeg  20.3975 2.30823 1.27486
LeftFoot  -6.46966 0.180383 -3.33272
LeftToes  1.648e-009 -9.21574e-011 2.55256e-011
843
root  -82.4408 40.4947 -19.0389 8.0246 43.7373 4.3468
RightUpLeg  -12.1442 -13.8809 -11.0748
RightLeg  10.4314 1.34876 1.57808
RightFoot  -1.80191 -0.400654 4.64883
RightToes  -8.14909e-010 0 -3.6325e-017
Spine  14.0187 -1.83688 10.6217
Spine1  8.2335 2.15228 -11.7106
HEad  -52.507 -44.019 25.8182
LeftShoulder1  0.560966 1.72869 -25.3506
LeftArm  -3.42008 14.895 -42.1457
LeftForeArm  29.8769 -31.456 -5.21737
LeftHand  0.0337075 7.15282 4.35782
RightShoulder  -0.522957 -5.49106 19.4428
RightArm  -9.99136 29.7569 24.3988
RightForeArm  53.4887 39.9226 6.09587
RightHand  0.257389 -0.165307 5.66651
LeftUpLeg  -15.9044 17.2784 0.16281
LeftLeg  17.6083 4.94142 2.06328
LeftFoot  -6.24442 0.150454 -2.53544
LeftToes  1.648e-009 -9.21574e-011 2.55256e-011
844
root  -82.175 40.5004 -19.2873 7.58075 44.8375 3.55237
RightUpLeg  -10.9873 -13.7287 -11.1714
RightLeg  8.58676 0.132707 1.51647
RightFoot  -1.00978 -0.480592 5.23606
RightToes  -8.14909e-010 0 -3.6325e-017
Spine  13.4378 -1.69287 10.4684
Spine1  7.89992 2.20298 -11.7083
HEad  -52.148 -44.8171 25.975
LeftShoulder1  0.503056 1.92871 -25.7683
LeftArm  -3.15444 15.2693 -41.7297
LeftForeArm  29.4009 -31.8082 -5.32812
LeftHand  0.0747367 7.82627 5.27491
RightShoulder  -0.460039 -5.23945 19.5185
RightArm  -12.3372 28.5095 25.1793
RightForeArm  53.9723 39.4232 5.9377
RightHand  0.436427 2.03023 6.69929
LeftUpLeg  -15.741 18.5233 0.894718
LeftLeg  15.6334 9.10743 2.89272
LeftFoot  -6.25038 0.136494 -2.22133
LeftToes  1.648e-009 -9.21574e-011 2.55256e-011
845
root  -81.7947 40.4731 -19.5963 7.03439 46.1828 3.18396
RightUpLeg  -9.5041 -14.0364 -11.9045
RightLeg  7.30527 -0.700781 1.45521
RightFoot  -0.619908 -0.587564 6.20742
RightToes  -8.14909e-010 0 -3.6325e-017
Spine  13.3294 -1.44355 9.22616
Spine1  7.26966 1.86897 -10.1036
HEad  -51.3962 -45.7336 25.554
LeftShoulder1  0.425014 2.23349 -27.2839
LeftArm  -2.24659 15.4824 -40.5625
LeftForeArm  29.3372 -32.0282 -5.38478
LeftHand  0.0779946 8.30875 4.50679
RightShoulder  -0.351289 -4.86279 18.7829
RightArm  -14.089 27.5953 26.0873
RightForeArm  54.3103 37.8623 5.50943
RightHand  0.4161 1.95193 6.40136
LeftUpLeg  -14.7634 17.4949 1.63503
LeftLeg  14.0115 13.8934 3.16721
LeftFoot  -6.07858 0.110714 -1.62281
LeftToes  1.648e-009 -9.21574e-011 2.55256e-011
846
root  -81.3299 40.437 -19.9286 6.28644 47.2126 2.88025
RightUpLeg  -7.87014 -14.3478 -12.8386
RightLeg  6.26974 -1.15402 1.33965
RightFoot  -0.413244 -0.719261 7.48154
RightToes  -8.14909e-010 0 -3.6325e-017
Spine  12.6423 -1.31693 8.70156
Spine1  7.6866 1.9549 -10.0637
HEad  -50.1509 -45.2906 25.061
LeftShoulder1  0.389522 2.35853 -27.8545
LeftArm  -2.18361 15.4306 -40.2079
LeftForeArm  29.9698 -31.4133 -5.20188
LeftHand  -0.00585402 6.34587 2.96603
RightShoulder  -0.340186 -4.81364 18.8738
RightArm  -15.0384 27.5354 26.2336
RightForeArm  55.0727 36.3706 5.09465
RightHand  0.289284 -0.404849 6.87435
LeftUpLeg  -13.612 16.4575 2.04632
LeftLeg  13.4059 16.9838 3.2384
LeftFoot  -4.75403 0.154849 -2.14823
LeftToes  1.648e-009 -9.21574e-011 2.55256e-011
847
root  -80.8101 40.3482 -20.2708 5.14661 47.8008 2.27405
RightUpLeg  -6.38435 -14.4232 -13.515
RightLeg  5.75482 -1.63805 1.02861
RightFoot  -0.625542 -0.823201 8.71812
RightToes  -8.14909e-010 0 -3.6325e-017
Spine  11.875 -1.08818 8.49573
Spine1  8.3516 2.35716 -10.6589
HEad  -49.5371 -44.8645 25.246
LeftShoulder1  0.374412 2.39001 -27.4679
LeftArm  -2.9491 15.9065 -40.5676
LeftForeArm  29.6875 -31.0524 -5.13114
LeftHand  -0.0279129 5.35573 2.08114
RightShoulder  -0.353763 -4.84673 19.2762
RightArm  -14.8424 27.5892 25.6229
RightForeArm  54.8325 35.0717 4.79224
RightHand  0.293059 -0.77177 7.54359
LeftUpLeg  -12.8923 17.1968 1.8843
LeftLeg  13.9184 16.3429 3.13154
LeftFoot  -3.70966 0.200191 -2.70047
LeftToes  1.648e-009 -9.21574e-011 2.55256e-011
848
root  -80.2432 40.2528 -20.6488 4.90945 48.9254 2.69836
RightUpLeg  -5.381 -14.8619 -14.9613
RightLeg  6.2906 -1.99431 0.432435
RightFoot  -1.26605 -0.896069 10.0459
RightToes  -8.14909e-010 0 -3.6325e-017
Spine  11.2797 -0.892048 6.63414
Spine1  8.48102 2.17435 -9.88218
HEad  -47.1849 -44.9005 23.7078
LeftShoulder1  0.340691 2.5033 -27.8915
LeftArm  -2.19466 15.9384 -40.4324
LeftForeArm  28.7765 -29.8841 -4.9151
LeftHand  -0.0165533 5.83415 3.0814
RightShoulder  -0.371783 -4.90219 19.5393
RightArm  -14.7542 28.1559 24.6467
RightForeArm  53.3724 33.1521 4.40546
RightHand  0.405928 1.36225 6.85358
LeftUpLeg  -12.8719 17.3103 0.551267
LeftLeg  15.0184 14.8731 3.14801
LeftFoot  -3.89153 0.0223415 0.0291074
LeftToes  1.648e-009 -9.21574e-011 2.55256e-011
849
root  -79.6549 40.117 -20.9991 4.71591 50.2575 3.31702
RightUpLeg  -4.96731 -14.7051 -16.3516
RightLeg  8.58775 -2.83581 -0.647519
RightFoot  -2.81571 -0.786825 10.2972
RightToes  -8.14909e-010 0 -3.6325e-017
Spine  10.975 -0.741875 4.76753
Spine1  8.02166 1.90893 -9.18378
HEad  -45.1482 -45.4879 22.8886
LeftShoulder1  0.356594 2.46423 -28.166
LeftArm  -0.59102 15.3667 -40.1486
LeftForeArm  27.0997 -27.2412 -4.40169
LeftHand  -0.0223643 5.56314 2.92334
RightShoulder  -0.406216 -5.01653 19.8633
RightArm  -14.0857 28.3122 23.2136
RightForeArm  51.546 31.6267 4.143
RightHand  0.397096 1.15084 6.89923
LeftUpLeg  -12.5145 16.8621 -0.692926
LeftLeg  16.3195 13.6188 3.2742
LeftFoot  -5.34063 -0.000271342 0.627226
LeftToes  1.648e-009 -9.21574e-011 2.55256e-011
850
root  -79.0855 39.9735 -21.3307 4.93375 51.0986 4.28992
RightUpLeg  -5.81796 -11.4605 -17.634
RightLeg  12.5791 -4.92211 -2.02536
RightFoot  -4.88974 -0.549093 8.94553
RightToes  -8.14909e-010 0 -3.6325e-017
Spine  10.4608 -0.548824 2.90883
Spine1  8.00191 1.80873 -8.88945
HEad  -42.828 -45.5736 21.6652
LeftShoulder1  0.279693 2.68435 -27.9977
LeftArm  -0.628623 15.8447 -40.1952
LeftForeArm  26.8093 -26.576 -4.2752
LeftHand  -0.00860085 6.17716 3.17037
RightShoulder  -0.399012 -5.01031 19.477
RightArm  -13.5029 28.8907 22.5428
RightForeArm  48.589 29.951 3.90837
RightHand  0.530822 3.23407 6.86926
LeftUpLeg  -12.0366 15.6245 -1.96554
LeftLeg  17.4968 13.9354 3.41617
LeftFoot  -7.05127 0.00225763 1.03122
LeftToes  1.648e-009 -9.21574e-011 2.55256e-011
851
root  -78.5123 39.9088 -21.6434 4.48437 51.3483 5.12659
RightUpLeg  -7.13739 -5.46763 -18.573
RightLeg  17.9668 -7.30377 -2.80382
RightFoot  -6.95062 -0.219601 4.61131
RightToes  -8.14909e-010 0 -3.6325e-017
Spine  10.5819 -0.257061 1.96494
Spine1  8.08574 2.17983 -9.55943
HEad  -41.4341 -46.0712 21.59
LeftShoulder1  0.327142 2.5247 -27.236
LeftArm  -0.839966 15.46 -40.3064
LeftForeArm  25.9651 -24.6691 -3.91375
LeftHand  -0.0105628 6.07966 3.08341
RightShoulder  -0.424066 -5.07909 19.9357
RightArm  -13.1877 30.156 21.881
RightForeArm  46.7493 27.9049 3.55573
RightHand  0.365056 1.46591 6.08328
LeftUpLeg  -10.4039 14.9018 -2.89184
LeftLeg  17.9375 14.4899 3.30539
LeftFoot  -8.58215 0.0255103 1.1394
LeftToes  1.648e-009 -9.21574e-011 2.55256e-011
852
root  -77.9475 39.8632 -21.9002 3.75073 51.791 5.40552
RightUpLeg  -8.88939 -3.20294 -18.219
RightLeg  23.2802 -4.5053 -2.30525
RightFoot  -7.71135 -0.141019 2.87186
RightToes  -8.14909e-010 0 -3.6325e-017
Spine  10.4706 -0.156854 1.12375
Spine1  8.46088 2.23546 -9.74666
HEad  -40.6008 -46.5697 21.4851
LeftShoulder1  0.362608 2.42259 -27.3957
LeftArm  -0.828071 14.9929 -39.4238
LeftForeArm  25.281 -23.2061 -3.6832
LeftHand  -0.0160861 6.09034 2.71024
RightShoulder  -0.453296 -5.15241 20.571
RightArm  -13.285 32.5121 21.6136
RightForeArm  45.642 25.3113 3.06585
RightHand  0.428139 2.51722 6.06552
LeftUpLeg  -8.87328 13.9317 -3.43394
LeftLeg  18.1814 15.0482 3.10876
LeftFoot  -9.55669 0.0242802 2.05169
LeftToes  1.648e-009 -9.21574e-011 2.55256e-011
